<?xml version="1.0" encoding="UTF-8"?>
<svg width="220px" height="310px" viewBox="0 0 220 310" version="1.1" xmlns="http://www.w3.org/2000/svg" xmlns:xlink="http://www.w3.org/1999/xlink">
    <!-- Generator: Sketch 55.2 (78181) - https://sketchapp.com -->
    <title>palomitera copy</title>
    <desc>Created with Sketch.</desc>
    <g id="palomitera-copy" stroke="none" stroke-width="1" fill="none" fill-rule="evenodd">
        <g id="Group-Copy" transform="translate(74.000000, 119.000000)">
            <path d="M1.41140668,9.95611356 C1.14481913,9.18660049 1,8.3602124 1,7.5 C1,3.35786438 4.35786438,0 8.5,0 C12.6421356,0 16,3.35786438 16,7.5 C16,7.67397373 15.9940765,7.84656395 15.98242,8.01757996 C16.1534361,8.00592355 16.3260263,8 16.5,8 C20.6421356,8 24,11.3578644 24,15.5 C24,19.6421356 20.6421356,23 16.5,23 C15.971235,23 15.4552504,22.9452808 14.9573999,22.8411961 C14.9855286,23.0572016 15,23.2770516 15,23.5 C15,26.5375661 12.3137085,29 9,29 C5.6862915,29 3,26.5375661 3,23.5 C3,21.6311899 4.01679173,19.9800739 5.57091982,18.9861526 C2.45747133,18.7844903 0,16.4053162 0,13.5 C0,12.1498265 0.530738743,10.9132837 1.41140668,9.95611356 Z M9.43173536,18.0140199 C9.43155461,18.0135117 9.43137391,18.0130036 9.43119327,18.0124954 C9.43048902,18.0129462 9.42978465,18.0133968 9.42908018,18.0138474 C9.42996529,18.0139047 9.43085035,18.0139622 9.43173536,18.0140199 Z" id="Combined-Shape" fill="#FAEDD3"></path>
            <path d="M15.0286779,21.4303502 C15.142769,21.4358771 15.257577,21.4386725 15.3730378,21.4386725 C19.2390311,21.4386725 22.3730378,18.3046658 22.3730378,14.4386725 C22.3730378,13.0171548 21.9493146,11.694603 21.2212807,10.5904296 C23.1200434,11.8423739 24.3730378,13.994197 24.3730378,16.4386725 C24.3730378,20.3046658 21.2390311,23.4386725 17.3730378,23.4386725 C16.6755134,23.4386725 16.0018177,23.3366499 15.3660589,23.1467128 C15.3706938,23.2434499 15.3730378,23.3407874 15.3730378,23.4386725 C15.3730378,26.752381 12.6867463,29.4386725 9.37303781,29.4386725 C7.20365924,29.4386725 5.30318536,28.2873547 4.24930371,26.5624066 C5.1592001,27.1183208 6.22870788,27.4386725 7.37303781,27.4386725 C10.6867463,27.4386725 13.3730378,24.752381 13.3730378,21.4386725 C13.3730378,20.2943426 13.0526861,19.2248348 12.4967719,18.3149384 C13.6616417,19.0266322 14.5649132,20.1244057 15.0286779,21.4303502 Z" id="Combined-Shape" fill="#EEC36C" transform="translate(14.311171, 20.014551) rotate(4.000000) translate(-14.311171, -20.014551) "></path>
        </g>
        <g id="Group-Copy-3" transform="translate(113.000000, 276.000000)">
            <path d="M1.41140668,9.95611356 C1.14481913,9.18660049 1,8.3602124 1,7.5 C1,3.35786438 4.35786438,0 8.5,0 C12.6421356,0 16,3.35786438 16,7.5 C16,7.67397373 15.9940765,7.84656395 15.98242,8.01757996 C16.1534361,8.00592355 16.3260263,8 16.5,8 C20.6421356,8 24,11.3578644 24,15.5 C24,19.6421356 20.6421356,23 16.5,23 C15.971235,23 15.4552504,22.9452808 14.9573999,22.8411961 C14.9855286,23.0572016 15,23.2770516 15,23.5 C15,26.5375661 12.3137085,29 9,29 C5.6862915,29 3,26.5375661 3,23.5 C3,21.6311899 4.01679173,19.9800739 5.57091982,18.9861526 C2.45747133,18.7844903 0,16.4053162 0,13.5 C0,12.1498265 0.530738743,10.9132837 1.41140668,9.95611356 Z M9.43173536,18.0140199 C9.43155461,18.0135117 9.43137391,18.0130036 9.43119327,18.0124954 C9.43048902,18.0129462 9.42978465,18.0133968 9.42908018,18.0138474 C9.42996529,18.0139047 9.43085035,18.0139622 9.43173536,18.0140199 Z" id="Combined-Shape" fill="#FAEDD3"></path>
            <path d="M15.0286779,21.4303502 C15.142769,21.4358771 15.257577,21.4386725 15.3730378,21.4386725 C19.2390311,21.4386725 22.3730378,18.3046658 22.3730378,14.4386725 C22.3730378,13.0171548 21.9493146,11.694603 21.2212807,10.5904296 C23.1200434,11.8423739 24.3730378,13.994197 24.3730378,16.4386725 C24.3730378,20.3046658 21.2390311,23.4386725 17.3730378,23.4386725 C16.6755134,23.4386725 16.0018177,23.3366499 15.3660589,23.1467128 C15.3706938,23.2434499 15.3730378,23.3407874 15.3730378,23.4386725 C15.3730378,26.752381 12.6867463,29.4386725 9.37303781,29.4386725 C7.20365924,29.4386725 5.30318536,28.2873547 4.24930371,26.5624066 C5.1592001,27.1183208 6.22870788,27.4386725 7.37303781,27.4386725 C10.6867463,27.4386725 13.3730378,24.752381 13.3730378,21.4386725 C13.3730378,20.2943426 13.0526861,19.2248348 12.4967719,18.3149384 C13.6616417,19.0266322 14.5649132,20.1244057 15.0286779,21.4303502 Z" id="Combined-Shape" fill="#EEC36C" transform="translate(14.311171, 20.014551) rotate(4.000000) translate(-14.311171, -20.014551) "></path>
        </g>
        <g id="Group-Copy-21" transform="translate(96.000000, 11.000000)">
            <path d="M0.940937788,6.52297095 C0.763212751,6.01880722 0.666666667,5.47738054 0.666666667,4.9137931 C0.666666667,2.19998011 2.90524292,0 5.66666667,0 C8.42809042,0 10.6666667,2.19998011 10.6666667,4.9137931 C10.6666667,5.02777589 10.6627176,5.14085224 10.6549467,5.25289721 C10.7689574,5.24526026 10.8840175,5.24137931 11,5.24137931 C13.7614237,5.24137931 16,7.44135942 16,10.1551724 C16,12.8689854 13.7614237,15.0689655 11,15.0689655 C10.64749,15.0689655 10.3035003,15.033115 9.97159994,14.9649216 C9.99035241,15.1064424 10,15.2504821 10,15.3965517 C10,17.3866813 8.209139,19 6,19 C3.790861,19 2,17.3866813 2,15.3965517 C2,14.1721589 2.67786115,13.0903932 3.71394655,12.4392034 C1.63831422,12.3070798 0,10.7483106 0,8.84482759 C0,7.96023118 0.353825829,7.15008242 0.940937788,6.52297095 Z M6.28782357,11.8022889 C6.28770307,11.801956 6.28758261,11.801623 6.28746218,11.8012901 C6.28699268,11.8015854 6.2865231,11.8018807 6.28605345,11.8021759 C6.28664353,11.8022134 6.28723357,11.8022511 6.28782357,11.8022889 Z" id="Combined-Shape" fill="#FAEDD3"></path>
            <path d="M9.82644327,13.8260324 C9.90104127,13.8295981 9.97610801,13.8314016 10.0516016,13.8314016 C12.5793665,13.8314016 14.6285247,11.8094618 14.6285247,9.31527258 C14.6285247,8.39816439 14.3514749,7.54490514 13.8754528,6.83253524 C15.1169514,7.64024125 15.936217,9.02851417 15.936217,10.6055952 C15.936217,13.0997844 13.8870588,15.1217242 11.359294,15.1217242 C10.9032203,15.1217242 10.462727,15.0559031 10.0470385,14.9333631 C10.050069,14.9957741 10.0516016,15.0585725 10.0516016,15.1217242 C10.0516016,17.2596006 8.29518028,18.9926919 6.12852472,18.9926919 C4.71008489,18.9926919 3.46746735,18.2499063 2.77839089,17.1370365 C3.37332314,17.4956908 4.07261669,17.7023694 4.82083241,17.7023694 C6.98748797,17.7023694 8.74390934,15.9692781 8.74390934,13.8314016 C8.74390934,13.0931242 8.5344486,12.4031192 8.17096625,11.8160893 C8.93261185,12.2752466 9.52321249,12.9834875 9.82644327,13.8260324 Z" id="Combined-Shape" fill="#EEC36C" transform="translate(9.357304, 12.912614) rotate(4.000000) translate(-9.357304, -12.912614) "></path>
        </g>
        <g id="Group-Copy" transform="translate(94.000000, 296.500000) scale(-1, 1) rotate(-17.000000) translate(-94.000000, -296.500000) translate(86.000000, 287.000000)">
            <path d="M1.49135404,6.7120042 C1.33584463,6.26091033 1.25136681,5.77647594 1.25136681,5.27221349 C1.25136681,2.84406502 3.21012103,0.87566177 5.62636681,0.87566177 C8.04261259,0.87566177 10.0013668,2.84406502 10.0013668,5.27221349 C10.0013668,5.3741981 9.9979114,5.47537167 9.99111183,5.57562243 C10.0908712,5.56878937 10.1915488,5.56531694 10.2930335,5.56531694 C12.7092793,5.56531694 14.6680335,7.5337202 14.6680335,9.96186867 C14.6680335,12.3900171 12.7092793,14.3584204 10.2930335,14.3584204 C9.98458725,14.3584204 9.68359623,14.3263436 9.39318342,14.2653284 C9.40959183,14.3919523 9.41803347,14.52083 9.41803347,14.6515238 C9.41803347,16.432166 7.8510301,17.8756618 5.91803347,17.8756618 C3.98503685,17.8756618 2.41803347,16.432166 2.41803347,14.6515238 C2.41803347,13.5560145 3.01116198,12.5881189 3.9177367,12.0054754 C2.10155841,11.8872595 0.668033474,10.4925712 0.668033474,8.78945487 C0.668033474,7.99797388 0.977631074,7.27310394 1.49135404,6.7120042 Z M6.1698791,11.4356045 C6.16977366,11.4353066 6.16966826,11.4350087 6.16956288,11.4347108 C6.16915207,11.434975 6.16874119,11.4352392 6.16833024,11.4355033 C6.16884656,11.4355369 6.16936285,11.4355707 6.1698791,11.4356045 Z" id="Combined-Shape" fill="#FAEDD3"></path>
            <path d="M9.56992114,13.4434292 C9.6367877,13.4466383 9.70407441,13.4482615 9.77174377,13.4482615 C12.0375274,13.4482615 13.8743079,11.6285156 13.8743079,9.38374533 C13.8743079,8.55834795 13.6259719,7.79041463 13.1992854,7.14928172 C14.3121133,7.87621712 15.046469,9.12566275 15.046469,10.5450356 C15.046469,12.7898059 13.2096885,14.6095518 10.9439049,14.6095518 C10.5350995,14.6095518 10.1402595,14.5503128 9.76765356,14.4400268 C9.77037,14.4961967 9.77174377,14.5527153 9.77174377,14.6095518 C9.77174377,16.5336406 8.19736047,18.0934227 6.25526025,18.0934227 C4.98382959,18.0934227 3.86999875,17.4249156 3.25233917,16.4233329 C3.78561178,16.7461218 4.41242953,16.9321324 5.08309908,16.9321324 C7.0251993,16.9321324 8.5995826,15.3723503 8.5995826,13.4482615 C8.5995826,12.7838118 8.41183068,12.1628073 8.08602017,11.6344804 C8.76872771,12.0477219 9.29811763,12.6851388 9.56992114,13.4434292 Z" id="Combined-Shape" fill="#EEC36C" transform="translate(9.149404, 12.621352) rotate(4.000000) translate(-9.149404, -12.621352) "></path>
        </g>
        <g id="Group-Copy-2" transform="translate(117.000000, 51.500000) scale(-1, -1) rotate(-118.000000) translate(-117.000000, -51.500000) translate(109.000000, 42.000000)">
            <path d="M1.49135404,6.7120042 C1.33584463,6.26091033 1.25136681,5.77647594 1.25136681,5.27221349 C1.25136681,2.84406502 3.21012103,0.87566177 5.62636681,0.87566177 C8.04261259,0.87566177 10.0013668,2.84406502 10.0013668,5.27221349 C10.0013668,5.3741981 9.9979114,5.47537167 9.99111183,5.57562243 C10.0908712,5.56878937 10.1915488,5.56531694 10.2930335,5.56531694 C12.7092793,5.56531694 14.6680335,7.5337202 14.6680335,9.96186867 C14.6680335,12.3900171 12.7092793,14.3584204 10.2930335,14.3584204 C9.98458725,14.3584204 9.68359623,14.3263436 9.39318342,14.2653284 C9.40959183,14.3919523 9.41803347,14.52083 9.41803347,14.6515238 C9.41803347,16.432166 7.8510301,17.8756618 5.91803347,17.8756618 C3.98503685,17.8756618 2.41803347,16.432166 2.41803347,14.6515238 C2.41803347,13.5560145 3.01116198,12.5881189 3.9177367,12.0054754 C2.10155841,11.8872595 0.668033474,10.4925712 0.668033474,8.78945487 C0.668033474,7.99797388 0.977631074,7.27310394 1.49135404,6.7120042 Z M6.1698791,11.4356045 C6.16977366,11.4353066 6.16966826,11.4350087 6.16956288,11.4347108 C6.16915207,11.434975 6.16874119,11.4352392 6.16833024,11.4355033 C6.16884656,11.4355369 6.16936285,11.4355707 6.1698791,11.4356045 Z" id="Combined-Shape" fill="#FAEDD3"></path>
            <path d="M9.56992114,13.4434292 C9.6367877,13.4466383 9.70407441,13.4482615 9.77174377,13.4482615 C12.0375274,13.4482615 13.8743079,11.6285156 13.8743079,9.38374533 C13.8743079,8.55834795 13.6259719,7.79041463 13.1992854,7.14928172 C14.3121133,7.87621712 15.046469,9.12566275 15.046469,10.5450356 C15.046469,12.7898059 13.2096885,14.6095518 10.9439049,14.6095518 C10.5350995,14.6095518 10.1402595,14.5503128 9.76765356,14.4400268 C9.77037,14.4961967 9.77174377,14.5527153 9.77174377,14.6095518 C9.77174377,16.5336406 8.19736047,18.0934227 6.25526025,18.0934227 C4.98382959,18.0934227 3.86999875,17.4249156 3.25233917,16.4233329 C3.78561178,16.7461218 4.41242953,16.9321324 5.08309908,16.9321324 C7.0251993,16.9321324 8.5995826,15.3723503 8.5995826,13.4482615 C8.5995826,12.7838118 8.41183068,12.1628073 8.08602017,11.6344804 C8.76872771,12.0477219 9.29811763,12.6851388 9.56992114,13.4434292 Z" id="Combined-Shape" fill="#EEC36C" transform="translate(9.149404, 12.621352) rotate(4.000000) translate(-9.149404, -12.621352) "></path>
        </g>
        <g id="Group-Copy-12" transform="translate(113.000000, 197.000000)">
            <path d="M7.88765828,22.8864513 C7.60418406,22.9605513 7.30669889,23 7,23 C5.06700338,23 3.5,21.4329966 3.5,19.5 C3.5,19.1981726 3.53820544,18.9052685 3.61004406,18.62586 C1.45720293,17.4319645 2.90653439e-15,15.1361562 5.32907052e-15,12.5 C5.32907052e-15,8.63400675 3.13400675,5.5 7,5.5 C7.16812691,5.5 7.33486943,5.50592724 7.50003001,5.51758414 C7.50001001,5.51172491 7.5,5.50586353 7.5,5.5 C7.5,2.46243388 10.1862915,0 13.5,0 C15.5035778,0 17.2777838,0.900219461 18.3675192,2.28348456 C19.0800924,3.18799552 19.5,4.29904686 19.5,5.5 C19.5,6.84247535 18.9752961,8.07261214 18.1036227,9.02748711 C21.1338797,9.30497295 23.5,11.6491945 23.5,14.5 C23.5,15.8501735 22.9692613,17.0867163 22.0885933,18.0438864 C22.3551809,18.8133995 22.5,19.6397876 22.5,20.5 C22.5,24.6421356 19.1421356,28 15,28 C11.6921765,28 8.88450533,25.8585932 7.88765828,22.8864513 Z" id="Combined-Shape" fill="#FAEDD3"></path>
            <path d="M7.67259618,19.5 C8.40831427,22.645182 11.4095158,25 15,25 C18.5904842,25 21.5916857,22.645182 22.3274038,19.5 C22.4404415,19.983234 22.5,20.4851254 22.5,21 C22.5,24.8659932 19.1421356,28 15,28 C10.8578644,28 7.5,24.8659932 7.5,21 C7.5,20.4851254 7.55955853,19.983234 7.67259618,19.5 Z" id="Combined-Shape" fill="#EEC36C"></path>
            <path d="M15.7579009,15.3467174 C16.035175,17.0428645 17.7022662,18.3467174 19.717393,18.3467174 C21.7325198,18.3467174 23.399611,17.0428645 23.6768851,15.3467174 C23.7035804,15.5100189 23.717393,15.6769568 23.717393,15.8467174 C23.717393,17.7797141 21.926532,19.3467174 19.717393,19.3467174 C17.508254,19.3467174 15.717393,17.7797141 15.717393,15.8467174 C15.717393,15.6769568 15.7312055,15.5100189 15.7579009,15.3467174 Z" id="Combined-Shape-Copy-2" fill="#EEC36C" transform="translate(19.717393, 17.346717) rotate(-19.000000) translate(-19.717393, -17.346717) "></path>
            <path d="M2.80356334,20.9913682 C3.30145466,21.2363738 3.91704194,21.3811961 4.58336681,21.3811961 C6.24022105,21.3811961 7.58336681,20.4857656 7.58336681,19.3811961 C7.58336681,19.1484806 7.52374742,18.9250484 7.41413576,18.7173175 C8.15427922,19.0815321 8.6343323,19.6671367 8.6343323,20.3274896 C8.6343323,21.4320591 7.29118655,22.3274896 5.6343323,22.3274896 C4.32655123,22.3274896 3.21421661,21.7696192 2.80356334,20.9913682 Z" id="Combined-Shape-Copy" fill="#EEC36C" transform="translate(5.718948, 20.522404) rotate(59.000000) translate(-5.718948, -20.522404) "></path>
        </g>
        <g id="Group-Copy-14" transform="translate(92.000000, 71.000000)">
            <path d="M7.88765828,22.8864513 C7.60418406,22.9605513 7.30669889,23 7,23 C5.06700338,23 3.5,21.4329966 3.5,19.5 C3.5,19.1981726 3.53820544,18.9052685 3.61004406,18.62586 C1.45720293,17.4319645 2.90653439e-15,15.1361562 5.32907052e-15,12.5 C5.32907052e-15,8.63400675 3.13400675,5.5 7,5.5 C7.16812691,5.5 7.33486943,5.50592724 7.50003001,5.51758414 C7.50001001,5.51172491 7.5,5.50586353 7.5,5.5 C7.5,2.46243388 10.1862915,0 13.5,0 C15.5035778,0 17.2777838,0.900219461 18.3675192,2.28348456 C19.0800924,3.18799552 19.5,4.29904686 19.5,5.5 C19.5,6.84247535 18.9752961,8.07261214 18.1036227,9.02748711 C21.1338797,9.30497295 23.5,11.6491945 23.5,14.5 C23.5,15.8501735 22.9692613,17.0867163 22.0885933,18.0438864 C22.3551809,18.8133995 22.5,19.6397876 22.5,20.5 C22.5,24.6421356 19.1421356,28 15,28 C11.6921765,28 8.88450533,25.8585932 7.88765828,22.8864513 Z" id="Combined-Shape" fill="#FAEDD3"></path>
            <path d="M7.67259618,19.5 C8.40831427,22.645182 11.4095158,25 15,25 C18.5904842,25 21.5916857,22.645182 22.3274038,19.5 C22.4404415,19.983234 22.5,20.4851254 22.5,21 C22.5,24.8659932 19.1421356,28 15,28 C10.8578644,28 7.5,24.8659932 7.5,21 C7.5,20.4851254 7.55955853,19.983234 7.67259618,19.5 Z" id="Combined-Shape" fill="#EEC36C"></path>
            <path d="M15.7579009,15.3467174 C16.035175,17.0428645 17.7022662,18.3467174 19.717393,18.3467174 C21.7325198,18.3467174 23.399611,17.0428645 23.6768851,15.3467174 C23.7035804,15.5100189 23.717393,15.6769568 23.717393,15.8467174 C23.717393,17.7797141 21.926532,19.3467174 19.717393,19.3467174 C17.508254,19.3467174 15.717393,17.7797141 15.717393,15.8467174 C15.717393,15.6769568 15.7312055,15.5100189 15.7579009,15.3467174 Z" id="Combined-Shape-Copy-2" fill="#EEC36C" transform="translate(19.717393, 17.346717) rotate(-19.000000) translate(-19.717393, -17.346717) "></path>
            <path d="M2.80356334,20.9913682 C3.30145466,21.2363738 3.91704194,21.3811961 4.58336681,21.3811961 C6.24022105,21.3811961 7.58336681,20.4857656 7.58336681,19.3811961 C7.58336681,19.1484806 7.52374742,18.9250484 7.41413576,18.7173175 C8.15427922,19.0815321 8.6343323,19.6671367 8.6343323,20.3274896 C8.6343323,21.4320591 7.29118655,22.3274896 5.6343323,22.3274896 C4.32655123,22.3274896 3.21421661,21.7696192 2.80356334,20.9913682 Z" id="Combined-Shape-Copy" fill="#EEC36C" transform="translate(5.718948, 20.522404) rotate(59.000000) translate(-5.718948, -20.522404) "></path>
        </g>
        <g id="Group-Copy" transform="translate(94.000000, 234.000000)">
            <path d="M7.88765828,22.8864513 C7.60418406,22.9605513 7.30669889,23 7,23 C5.06700338,23 3.5,21.4329966 3.5,19.5 C3.5,19.1981726 3.53820544,18.9052685 3.61004406,18.62586 C1.45720293,17.4319645 2.90653439e-15,15.1361562 5.32907052e-15,12.5 C5.32907052e-15,8.63400675 3.13400675,5.5 7,5.5 C7.16812691,5.5 7.33486943,5.50592724 7.50003001,5.51758414 C7.50001001,5.51172491 7.5,5.50586353 7.5,5.5 C7.5,2.46243388 10.1862915,0 13.5,0 C15.5035778,0 17.2777838,0.900219461 18.3675192,2.28348456 C19.0800924,3.18799552 19.5,4.29904686 19.5,5.5 C19.5,6.84247535 18.9752961,8.07261214 18.1036227,9.02748711 C21.1338797,9.30497295 23.5,11.6491945 23.5,14.5 C23.5,15.8501735 22.9692613,17.0867163 22.0885933,18.0438864 C22.3551809,18.8133995 22.5,19.6397876 22.5,20.5 C22.5,24.6421356 19.1421356,28 15,28 C11.6921765,28 8.88450533,25.8585932 7.88765828,22.8864513 Z" id="Combined-Shape" fill="#FAEDD3"></path>
            <path d="M7.67259618,19.5 C8.40831427,22.645182 11.4095158,25 15,25 C18.5904842,25 21.5916857,22.645182 22.3274038,19.5 C22.4404415,19.983234 22.5,20.4851254 22.5,21 C22.5,24.8659932 19.1421356,28 15,28 C10.8578644,28 7.5,24.8659932 7.5,21 C7.5,20.4851254 7.55955853,19.983234 7.67259618,19.5 Z" id="Combined-Shape" fill="#EEC36C"></path>
            <path d="M15.7579009,15.3467174 C16.035175,17.0428645 17.7022662,18.3467174 19.717393,18.3467174 C21.7325198,18.3467174 23.399611,17.0428645 23.6768851,15.3467174 C23.7035804,15.5100189 23.717393,15.6769568 23.717393,15.8467174 C23.717393,17.7797141 21.926532,19.3467174 19.717393,19.3467174 C17.508254,19.3467174 15.717393,17.7797141 15.717393,15.8467174 C15.717393,15.6769568 15.7312055,15.5100189 15.7579009,15.3467174 Z" id="Combined-Shape-Copy-2" fill="#EEC36C" transform="translate(19.717393, 17.346717) rotate(-19.000000) translate(-19.717393, -17.346717) "></path>
            <path d="M2.80356334,20.9913682 C3.30145466,21.2363738 3.91704194,21.3811961 4.58336681,21.3811961 C6.24022105,21.3811961 7.58336681,20.4857656 7.58336681,19.3811961 C7.58336681,19.1484806 7.52374742,18.9250484 7.41413576,18.7173175 C8.15427922,19.0815321 8.6343323,19.6671367 8.6343323,20.3274896 C8.6343323,21.4320591 7.29118655,22.3274896 5.6343323,22.3274896 C4.32655123,22.3274896 3.21421661,21.7696192 2.80356334,20.9913682 Z" id="Combined-Shape-Copy" fill="#EEC36C" transform="translate(5.718948, 20.522404) rotate(59.000000) translate(-5.718948, -20.522404) "></path>
        </g>
        <g id="Group-Copy" transform="translate(78.500000, 218.000000) scale(-1, 1) rotate(51.000000) translate(-78.500000, -218.000000) translate(68.000000, 206.000000)">
            <path d="M1.89283607,7.60893315 C1.6928954,7.02516461 1.58428106,6.39824951 1.58428106,5.74567459 C1.58428106,2.6033648 4.10267934,0.0560194134 7.20928106,0.0560194134 C10.3158828,0.0560194134 12.8342811,2.6033648 12.8342811,5.74567459 C12.8342811,5.87765466 12.8298384,6.00858517 12.8210961,6.13832145 C12.9493581,6.12947866 13.0788008,6.12498493 13.2092811,6.12498493 C16.3158828,6.12498493 18.8342811,8.67233032 18.8342811,11.8146401 C18.8342811,14.9569499 16.3158828,17.5042953 13.2092811,17.5042953 C12.8127073,17.5042953 12.4257189,17.4627841 12.052331,17.3838233 C12.0734275,17.5476896 12.0842811,17.7144724 12.0842811,17.8836056 C12.0842811,20.1879661 10.0695624,22.0560194 7.58428106,22.0560194 C5.09899968,22.0560194 3.08428106,20.1879661 3.08428106,17.8836056 C3.08428106,16.4658876 3.84687485,15.2133168 5.01247093,14.4593076 C2.67738455,14.3063224 0.834281058,12.5014317 0.834281058,10.2973987 C0.834281058,9.2731292 1.23233511,8.33506222 1.89283607,7.60893315 Z M7.90808258,13.7218276 C7.90794701,13.7214421 7.90781149,13.7210566 7.90767601,13.7206711 C7.90714782,13.7210131 7.90661955,13.721355 7.90609119,13.7216967 C7.90675503,13.7217402 7.90741882,13.7217839 7.90808258,13.7218276 Z" id="Combined-Shape" fill="#FAEDD3"></path>
            <path d="M12.5605215,16.5912389 C12.6482839,16.5955177 12.7365977,16.5976819 12.8254137,16.5976819 C15.7992547,16.5976819 18.2100291,14.1713541 18.2100291,11.1783271 C18.2100291,10.0777973 17.8840881,9.05388617 17.3240621,8.19904229 C18.7846488,9.1682895 19.7484906,10.834217 19.7484906,12.7267142 C19.7484906,15.7197412 17.3377162,18.146069 14.3638752,18.146069 C13.827318,18.146069 13.3090906,18.0670838 12.8200453,17.9200357 C12.8236106,17.9949289 12.8254137,18.0702871 12.8254137,18.146069 C12.8254137,20.7115208 10.7590356,22.7912303 8.21002908,22.7912303 C6.54127634,22.7912303 5.07937335,21.8998875 4.26869516,20.5644438 C4.96861546,20.994829 5.79131375,21.2428432 6.67156755,21.2428432 C9.22057408,21.2428432 11.2869522,19.1631337 11.2869522,16.5976819 C11.2869522,15.7117491 11.0405278,14.8837431 10.6129015,14.1793072 C11.5089551,14.7302959 12.2037794,15.580185 12.5605215,16.5912389 Z" id="Combined-Shape" fill="#EEC36C" transform="translate(12.008593, 15.495136) rotate(4.000000) translate(-12.008593, -15.495136) "></path>
        </g>
        <g id="Group-Copy-20" transform="translate(109.500000, 165.000000) scale(-1, 1) rotate(25.000000) translate(-109.500000, -165.000000) translate(99.000000, 153.000000)">
            <path d="M1.89283607,7.60893315 C1.6928954,7.02516461 1.58428106,6.39824951 1.58428106,5.74567459 C1.58428106,2.6033648 4.10267934,0.0560194134 7.20928106,0.0560194134 C10.3158828,0.0560194134 12.8342811,2.6033648 12.8342811,5.74567459 C12.8342811,5.87765466 12.8298384,6.00858517 12.8210961,6.13832145 C12.9493581,6.12947866 13.0788008,6.12498493 13.2092811,6.12498493 C16.3158828,6.12498493 18.8342811,8.67233032 18.8342811,11.8146401 C18.8342811,14.9569499 16.3158828,17.5042953 13.2092811,17.5042953 C12.8127073,17.5042953 12.4257189,17.4627841 12.052331,17.3838233 C12.0734275,17.5476896 12.0842811,17.7144724 12.0842811,17.8836056 C12.0842811,20.1879661 10.0695624,22.0560194 7.58428106,22.0560194 C5.09899968,22.0560194 3.08428106,20.1879661 3.08428106,17.8836056 C3.08428106,16.4658876 3.84687485,15.2133168 5.01247093,14.4593076 C2.67738455,14.3063224 0.834281058,12.5014317 0.834281058,10.2973987 C0.834281058,9.2731292 1.23233511,8.33506222 1.89283607,7.60893315 Z M7.90808258,13.7218276 C7.90794701,13.7214421 7.90781149,13.7210566 7.90767601,13.7206711 C7.90714782,13.7210131 7.90661955,13.721355 7.90609119,13.7216967 C7.90675503,13.7217402 7.90741882,13.7217839 7.90808258,13.7218276 Z" id="Combined-Shape" fill="#FAEDD3"></path>
            <path d="M12.5605215,16.5912389 C12.6482839,16.5955177 12.7365977,16.5976819 12.8254137,16.5976819 C15.7992547,16.5976819 18.2100291,14.1713541 18.2100291,11.1783271 C18.2100291,10.0777973 17.8840881,9.05388617 17.3240621,8.19904229 C18.7846488,9.1682895 19.7484906,10.834217 19.7484906,12.7267142 C19.7484906,15.7197412 17.3377162,18.146069 14.3638752,18.146069 C13.827318,18.146069 13.3090906,18.0670838 12.8200453,17.9200357 C12.8236106,17.9949289 12.8254137,18.0702871 12.8254137,18.146069 C12.8254137,20.7115208 10.7590356,22.7912303 8.21002908,22.7912303 C6.54127634,22.7912303 5.07937335,21.8998875 4.26869516,20.5644438 C4.96861546,20.994829 5.79131375,21.2428432 6.67156755,21.2428432 C9.22057408,21.2428432 11.2869522,19.1631337 11.2869522,16.5976819 C11.2869522,15.7117491 11.0405278,14.8837431 10.6129015,14.1793072 C11.5089551,14.7302959 12.2037794,15.580185 12.5605215,16.5912389 Z" id="Combined-Shape" fill="#EEC36C" transform="translate(12.008593, 15.495136) rotate(4.000000) translate(-12.008593, -15.495136) "></path>
        </g>
    </g>
</svg>